# File created by Blade
# Date/Time:  Wed Jan 21 16:27:40 2015
# Frame Rate: 120.000 fps
#------------------------------------------------------
:FULLY-SPECIFIED
:DEGREES
261
root 17.302979 35.355602 -20.960103 -169.485653 62.333513 -185.848943
Spine 32.228339 -2.559327 2.790706
Head 8.788962 -19.580662 7.903359
LeftShoulder 3.572216 -28.109178 -4.918564
LeftArm 1.631143 18.353212 -76.353907
LeftForeArm -1.040258 -0.000000 9.244129
LeftHand -0.240742 -0.000000 7.189641
LeftHandThumb1 -26.253704 0.000000 33.147579
RightShoulder 2.462582 -7.095515 3.090547
RightArm 31.292933 -12.379581 61.925230
RightForeArm -19.412840 -0.000000 21.238859
RightHand -0.525960 0.000000 -2.466892
RightHandThumb1 -24.326973 -0.000000 -32.862282
LeftUpLeg -19.879670 28.989782 -11.404967
LeftLeg 26.700232 -0.000000 -0.000000
LeftFoot -30.094874 34.041941 -18.828735
LeftToeBase 18.758514 -0.000000 -0.000000
RightUpLeg -29.546795 -16.845146 13.306364
RightLeg 4.127484 -0.000000 -0.000000
RightFoot -13.529172 -28.098560 8.555110
RightToeBase 25.138435 -0.000000 -0.000000
262
root 17.325034 35.350407 -20.968517 -169.636431 62.847673 -186.135551
Spine 32.452859 -2.296441 2.573894
Head 8.873515 -19.435215 7.851954
LeftShoulder 3.460969 -28.080800 -4.855005
LeftArm 1.773903 19.027175 -76.320735
LeftForeArm -1.653106 -0.000000 9.641315
LeftHand -0.103965 -0.000000 7.560736
LeftHandThumb1 -26.253704 0.000000 33.147579
RightShoulder 2.592930 -6.969457 2.993927
RightArm 31.323835 -12.430826 62.044611
RightForeArm -19.490387 0.000000 21.472729
RightHand -0.506864 -0.000000 -2.627993
RightHandThumb1 -24.326973 -0.000000 -32.862282
LeftUpLeg -19.400603 28.503701 -11.023834
LeftLeg 26.746069 -0.000000 -0.000000
LeftFoot -30.091983 33.706223 -18.719375
LeftToeBase 19.091563 -0.000000 -0.000000
RightUpLeg -29.655305 -16.492922 13.206430
RightLeg 4.217354 -0.000000 -0.000000
RightFoot -13.328186 -28.104018 8.007283
RightToeBase 25.050710 -0.000000 -0.000000
263
root 17.357443 35.343864 -20.976407 -169.781929 63.357899 -186.325969
Spine 32.724712 -2.019737 2.369025
Head 8.972233 -19.272969 7.885563
LeftShoulder 3.400409 -28.011138 -4.750588
LeftArm 1.958890 18.924088 -76.363332
LeftForeArm -1.509524 -0.000000 9.845172
LeftHand 0.148139 -0.000000 7.545320
LeftHandThumb1 -26.253704 0.000000 33.147579
RightShoulder 2.700005 -6.883274 2.958031
RightArm 31.397061 -12.535242 62.082415
RightForeArm -19.520332 -0.000000 21.658487
RightHand -0.568999 -0.000000 -2.988121
RightHandThumb1 -24.326973 -0.000000 -32.862282
LeftUpLeg -18.772256 27.909289 -10.523670
LeftLeg 26.744013 -0.000000 -0.000000
LeftFoot -30.080671 33.627415 -18.706569
LeftToeBase 18.381286 -0.000000 -0.000000
RightUpLeg -29.672876 -16.191269 13.154976
RightLeg 4.295727 -0.000000 -0.000000
RightFoot -13.194801 -28.037054 7.796059
RightToeBase 24.625871 -0.000000 -0.000000
264
root 17.388619 35.338219 -20.989516 -169.929041 63.833552 -186.481008
Spine 32.996303 -1.820202 2.202597
Head 9.087794 -19.046783 7.851402
LeftShoulder 3.376603 -28.057963 -4.711482
LeftArm 1.964071 18.861559 -76.430294
LeftForeArm -1.367919 -0.000000 10.104517
LeftHand 0.066396 0.000000 7.529152
LeftHandThumb1 -26.253704 0.000000 33.147579
RightShoulder 2.815023 -6.859357 2.890377
RightArm 31.528097 -12.601095 62.119812
RightForeArm -19.430635 -0.000000 21.772191
RightHand -0.566158 0.000000 -3.132652
RightHandThumb1 -24.326973 -0.000000 -32.862282
LeftUpLeg -18.082147 27.273733 -9.992891
LeftLeg 26.755081 -0.000000 -0.000000
LeftFoot -30.057628 33.390929 -18.674592
LeftToeBase 18.728030 -0.000000 -0.000000
RightUpLeg -29.671490 -15.914899 13.110819
RightLeg 4.400463 -0.000000 -0.000000
RightFoot -13.065177 -28.056107 7.416999
RightToeBase 24.443658 -0.000000 -0.000000
265
root 17.413828 35.331402 -21.004681 -170.036584 64.329207 -186.642398
Spine 33.175811 -1.624307 2.025240
Head 9.244926 -18.885644 7.738590
LeftShoulder 3.376274 -28.169696 -4.676478
LeftArm 1.851597 18.686388 -76.545328
LeftForeArm -1.036543 -0.000000 10.310338
LeftHand 0.011093 -0.000000 7.590280
LeftHandThumb1 -26.253704 0.000000 33.147579
RightShoulder 2.926848 -6.824247 2.815731
RightArm 31.559976 -12.598025 62.247041
RightForeArm -19.460271 -0.000000 21.936868
RightHand -0.499481 -0.000000 -3.171971
RightHandThumb1 -24.326973 -0.000000 -32.862282
LeftUpLeg -17.432912 26.553379 -9.508354
LeftLeg 26.741197 -0.000000 -0.000000
LeftFoot -30.089618 33.399392 -18.639025
LeftToeBase 18.831529 -0.000000 -0.000000
RightUpLeg -29.722812 -15.550131 13.023195
RightLeg 4.530424 -0.000000 -0.000000
RightFoot -12.993131 -28.048752 7.117216
RightToeBase 24.476169 -0.000000 -0.000000
266
root 17.440043 35.325290 -21.021173 -170.046407 64.805140 -186.710181
Spine 33.304460 -1.408438 1.921243
Head 9.386136 -18.759490 7.678935
LeftShoulder 3.514734 -28.585067 -4.699468
LeftArm 1.325945 18.600147 -76.801524
LeftForeArm -0.852298 -0.000000 10.516479
LeftHand 0.166871 -0.000000 7.518301
LeftHandThumb1 -26.253704 0.000000 33.147579
RightShoulder 2.935996 -6.743932 2.793315
RightArm 31.564208 -12.680815 62.320476
RightForeArm -19.644972 -0.000000 21.992982
RightHand -0.405257 0.000000 -3.125926
RightHandThumb1 -24.326973 -0.000000 -32.862282
LeftUpLeg -16.785699 25.791803 -8.995067
LeftLeg 26.740236 -0.000000 -0.000000
LeftFoot -29.974643 33.453782 -18.389700
LeftToeBase 18.984082 -0.000000 -0.000000
RightUpLeg -29.774917 -15.210221 12.992808
RightLeg 4.644005 -0.000000 -0.000000
RightFoot -12.876925 -28.042796 6.830476
RightToeBase 24.291814 -0.000000 -0.000000
267
root 17.465032 35.318504 -21.039117 -169.974993 65.210945 -186.663574
Spine 33.408248 -1.298691 1.920155
Head 9.588890 -18.536463 7.503585
LeftShoulder 3.518322 -28.573817 -4.789561
LeftArm 1.342926 18.677596 -76.842478
LeftForeArm -0.649502 -0.000000 10.646786
LeftHand 0.175660 -0.000000 7.379783
LeftHandThumb1 -26.253704 0.000000 33.147579
RightShoulder 2.991262 -6.770923 2.688089
RightArm 31.574886 -12.643835 62.453987
RightForeArm -19.789028 -0.000000 22.133802
RightHand -0.476075 -0.000000 -3.229018
RightHandThumb1 -24.326973 -0.000000 -32.862282
LeftUpLeg -16.092036 24.889904 -8.426362
LeftLeg 26.747042 -0.000000 -0.000000
LeftFoot -29.779185 33.450939 -18.238021
LeftToeBase 18.364737 -0.000000 -0.000000
RightUpLeg -29.827689 -14.996192 13.049134
RightLeg 4.784474 -0.000000 -0.000000
RightFoot -12.789563 -27.970873 6.581141
RightToeBase 24.110233 -0.000000 -0.000000
268
root 17.489371 35.310487 -21.056157 -169.842436 65.576261 -186.548086
Spine 33.488189 -1.281902 1.909130
Head 9.794046 -18.339873 7.282616
LeftShoulder 3.450704 -28.535338 -4.842603
LeftArm 1.388782 18.821840 -76.879110
LeftForeArm -0.454896 -0.000000 10.726012
LeftHand 0.103296 -0.000000 7.492417
LeftHandThumb1 -26.253704 0.000000 33.147579
RightShoulder 3.085896 -6.660026 2.596480
RightArm 31.457917 -12.711870 62.592627
RightForeArm -19.761181 -0.000000 22.219782
RightHand -0.514903 -0.000000 -3.227059
RightHandThumb1 -24.326973 -0.000000 -32.862282
LeftUpLeg -15.413549 23.893107 -7.851003
LeftLeg 26.795796 -0.000000 -0.000000
LeftFoot -29.562382 33.554919 -17.989937
LeftToeBase 17.408345 -0.000000 -0.000000
RightUpLeg -29.833611 -14.733865 13.091076
RightLeg 4.855308 -0.000000 -0.000000
RightFoot -12.747037 -27.977845 6.474757
RightToeBase 23.905374 -0.000000 -0.000000
269
root 17.510611 35.304318 -21.077043 -169.680979 65.925596 -186.434997
Spine 33.506217 -1.274377 1.922328
Head 9.971035 -18.097174 7.122449
LeftShoulder 3.420661 -28.579329 -4.930604
LeftArm 1.366910 18.841765 -76.957212
LeftForeArm -0.318020 -0.000000 10.673404
LeftHand 0.181718 -0.000000 7.229050
LeftHandThumb1 -26.253704 0.000000 33.147579
RightShoulder 3.118795 -6.657049 2.529177
RightArm 31.425272 -12.758471 62.670802
RightForeArm -19.772878 -0.000000 22.272626
RightHand -0.510078 -0.000000 -3.231134
RightHandThumb1 -24.326973 -0.000000 -32.862282
LeftUpLeg -14.753523 22.864472 -7.328770
LeftLeg 26.829047 -0.000000 -0.000000
LeftFoot -29.338906 33.563695 -17.712826
LeftToeBase 17.798983 -0.000000 -0.000000
RightUpLeg -29.901204 -14.556570 13.165448
RightLeg 4.958499 -0.000000 -0.000000
RightFoot -12.740205 -27.891599 6.414393
RightToeBase 23.886245 -0.000000 -0.000000
270
root 17.525958 35.298886 -21.098327 -169.536602 66.259831 -186.353093
Spine 33.498035 -1.282551 1.923269
Head 10.130492 -17.886397 6.940957
LeftShoulder 3.417152 -28.548387 -5.014092
LeftArm 1.380665 18.808603 -77.011568
LeftForeArm -0.191147 -0.000000 10.675594
LeftHand 0.125227 -0.000000 7.010312
LeftHandThumb1 -26.253704 0.000000 33.147579
RightShoulder 3.119381 -6.687880 2.473148
RightArm 31.439830 -12.809664 62.713873
RightForeArm -19.760360 -0.000000 22.328139
RightHand -0.732297 -0.000000 -2.994230
RightHandThumb1 -24.326973 -0.000000 -32.862282
LeftUpLeg -14.119885 21.810439 -6.860582
LeftLeg 26.864341 -0.000000 -0.000000
LeftFoot -29.246458 33.575004 -17.651344
LeftToeBase 17.605991 -0.000000 -0.000000
RightUpLeg -29.973907 -14.370550 13.212521
RightLeg 5.042259 -0.000000 -0.000000
RightFoot -12.717961 -27.817701 6.325667
RightToeBase 23.764116 -0.000000 -0.000000
271
root 17.537853 35.292493 -21.117790 -169.347518 66.614611 -186.250337
Spine 33.430200 -1.315070 1.880990
Head 10.309683 -17.608465 6.775808
LeftShoulder 3.335365 -28.513326 -5.051102
LeftArm 1.397921 18.981644 -77.096348
LeftForeArm -0.049666 -0.000000 10.619162
LeftHand 0.033009 0.000000 7.075755
LeftHandThumb1 -26.253704 0.000000 33.147579
RightShoulder 3.190014 -6.753065 2.439595
RightArm 31.408707 -12.855822 62.744263
RightForeArm -19.816139 -0.000000 22.353407
RightHand -0.732606 -0.000000 -2.968906
RightHandThumb1 -24.326973 -0.000000 -32.862282
LeftUpLeg -13.525328 20.820371 -6.430703
LeftLeg 26.914148 -0.000000 -0.000000
LeftFoot -28.967016 33.595262 -17.433789
LeftToeBase 17.548397 -0.000000 -0.000000
RightUpLeg -30.084528 -14.138119 13.257219
RightLeg 5.152971 -0.000000 -0.000000
RightFoot -12.718951 -27.758811 6.275243
RightToeBase 23.807905 -0.000000 -0.000000
